<svg width="224" height="23" viewBox="0 0 224 23" fill="none" xmlns="http://www.w3.org/2000/svg">
<path d="M5.90969 17.3518C5.50321 17.3518 5.05764 17.3127 4.57298 17.2345C4.08832 17.1563 3.60366 17.0469 3.11901 16.9062C2.63435 16.7655 2.15751 16.6013 1.68848 16.4137C1.23509 16.2261 0.828608 16.0307 0.469023 15.8274V10.7151C0.469023 10.2773 0.656633 10.2226 1.03185 10.5509C1.61031 11.0669 2.25131 11.575 2.95485 12.0753C3.65838 12.5755 4.38537 13.0211 5.13581 13.412C5.88624 13.8028 6.62886 14.1233 7.36367 14.3735C8.1141 14.608 8.80982 14.7252 9.45082 14.7252C9.68533 14.7252 9.88076 14.6549 10.0371 14.5142C10.1934 14.3735 10.2716 14.2015 10.2716 13.9983C10.2716 13.5292 9.85731 13.068 9.0287 12.6146L3.11901 9.42527C2.22786 8.95625 1.57123 8.3856 1.14911 7.71334C0.726986 7.02544 0.500292 6.16556 0.469023 5.13371C0.437755 4.47708 0.555011 3.86735 0.820791 3.30452C1.1022 2.72606 1.48524 2.22576 1.9699 1.80364C2.47019 1.38152 3.05647 1.05321 3.72874 0.818694C4.41664 0.568549 5.15144 0.443476 5.93315 0.443476C6.44907 0.443476 6.91809 0.474744 7.34022 0.537281C7.77797 0.584183 8.20791 0.631085 8.63003 0.677987C9.05215 0.72489 9.48991 0.740524 9.9433 0.724891C10.3967 0.709256 10.9048 0.631085 11.4676 0.490378C11.7021 0.443476 11.8663 0.529464 11.9601 0.748341C12.1477 1.31117 12.2337 1.83491 12.2181 2.31957C12.2024 2.78859 12.1008 3.2029 11.9132 3.56248C11.7256 3.90643 11.452 4.18003 11.0924 4.38327C10.7328 4.58652 10.2951 4.68814 9.77914 4.68814C9.23194 4.68814 8.70038 4.6256 8.18446 4.50053C7.68417 4.35982 7.19951 4.18785 6.73048 3.9846C6.2771 3.76573 5.83152 3.53121 5.39377 3.28107C4.97165 3.03092 4.56516 2.78859 4.17431 2.55408C4.00233 2.44464 3.79127 2.38211 3.54113 2.36647C3.30661 2.3352 3.07992 2.35865 2.86104 2.43682C2.64216 2.49936 2.45456 2.62443 2.29821 2.81204C2.15751 2.98402 2.08715 3.21071 2.08715 3.49213C2.08715 4.02369 2.50146 4.47708 3.33007 4.8523L9.63843 7.76024C10.4358 8.11982 11.069 8.68265 11.538 9.44872C12.007 10.1992 12.2415 11.0903 12.2415 12.1222C12.2415 12.857 12.0774 13.5449 11.749 14.1859C11.4207 14.8112 10.9673 15.3584 10.3889 15.8274C9.82604 16.2965 9.16159 16.6717 8.39552 16.9531C7.62945 17.2189 6.80084 17.3518 5.90969 17.3518ZM12.6684 16.9531C12.9498 16.4215 13.1531 15.7649 13.2781 14.9832C13.4188 14.1859 13.4892 13.1775 13.4892 11.958V5.62618C13.4892 4.40672 13.4188 3.40614 13.2781 2.62443C13.1531 1.82709 12.9498 1.16265 12.6684 0.631086V0.584183H18.2029C18.2029 1.33462 18.0778 2.04597 17.8277 2.71824C17.5775 3.37487 17.3039 3.97679 17.0069 4.52398C16.7098 5.05554 16.4362 5.51675 16.1861 5.9076C15.9359 6.29845 15.8108 6.60332 15.8108 6.82219C15.8108 7.0098 15.8656 7.16614 15.975 7.29122C16.0844 7.40066 16.2642 7.48664 16.5144 7.54918C16.7802 7.61172 17.1241 7.65862 17.5462 7.68989C17.9684 7.70552 18.4843 7.71334 19.094 7.71334H19.7975C20.4073 7.71334 20.9232 7.70552 21.3453 7.68989C21.7674 7.65862 22.1036 7.61172 22.3537 7.54918C22.6195 7.48664 22.8071 7.40066 22.9166 7.29122C23.026 7.16614 23.0807 7.0098 23.0807 6.82219C23.0807 6.60332 22.9556 6.3219 22.7055 5.97795C22.4553 5.634 22.1818 5.21188 21.8847 4.71159C21.5877 4.2113 21.3141 3.62502 21.0639 2.95275C20.8138 2.26485 20.6887 1.47533 20.6887 0.584183H26.2232V0.631086C25.9418 1.16265 25.7307 1.82709 25.59 2.62443C25.4649 3.40614 25.4024 4.40672 25.4024 5.62618V11.958C25.4024 13.1775 25.4649 14.1859 25.59 14.9832C25.7307 15.7649 25.9418 16.4215 26.2232 16.9531V17H20.6887V15.4522C20.6887 14.5767 20.8138 13.8419 21.0639 13.2478C21.3141 12.6537 21.5877 12.1456 21.8847 11.7235C22.1818 11.3014 22.4553 10.934 22.7055 10.6213C22.9556 10.293 23.0807 9.96465 23.0807 9.63633C23.0807 9.44872 23.026 9.3002 22.9166 9.19076C22.8071 9.06569 22.6195 8.97188 22.3537 8.90935C22.1036 8.84681 21.7674 8.80773 21.3453 8.79209C20.9232 8.76082 20.4073 8.74519 19.7975 8.74519H19.094C18.4843 8.74519 17.9684 8.76082 17.5462 8.79209C17.1241 8.80773 16.7802 8.84681 16.5144 8.90935C16.2642 8.97188 16.0844 9.06569 15.975 9.19076C15.8656 9.3002 15.8108 9.44872 15.8108 9.63633C15.8108 9.96465 15.9359 10.293 16.1861 10.6213C16.4362 10.934 16.7098 11.3014 17.0069 11.7235C17.3039 12.1456 17.5775 12.6537 17.8277 13.2478C18.0778 13.8419 18.2029 14.5767 18.2029 15.4522V17H12.6684V16.9531ZM30.7914 17C30.2442 17 29.7517 16.9218 29.314 16.7655C28.8762 16.6091 28.501 16.3981 28.1883 16.1323C27.8756 15.8509 27.6333 15.5226 27.4613 15.1474C27.2893 14.7565 27.2034 14.3344 27.2034 13.881C27.2034 12.7866 27.7036 11.8173 28.7042 10.9731C29.7048 10.1132 31.2213 9.3471 33.2538 8.67484C33.3945 8.62793 33.4961 8.5654 33.5586 8.48723C33.6212 8.39342 33.6368 8.30743 33.6055 8.22926C33.5899 8.15109 33.5195 8.08856 33.3945 8.04165C33.285 7.99475 33.1287 7.97912 32.9254 7.99475C32.5033 8.02602 31.9483 8.19018 31.2604 8.48723C30.5881 8.76864 29.8768 9.12041 29.1263 9.54253C28.5166 9.90211 28.0789 10.0037 27.8131 9.84739C27.5629 9.67542 27.4379 9.26111 27.4379 8.60448V5.62618C27.4379 4.40672 27.3675 3.40614 27.2268 2.62443C27.1017 1.82709 26.8985 1.16265 26.6171 0.631086V0.584183H37.9909V4.68814C37.9909 5.06336 37.8033 5.18843 37.4281 5.06336C37.0216 4.92265 36.6073 4.78976 36.1851 4.66469C35.763 4.53961 35.3487 4.43017 34.9422 4.33637C34.5514 4.22693 34.1762 4.14876 33.8166 4.10186C33.4726 4.03932 33.1834 4.00805 32.9489 4.00805C32.4486 4.00805 32.0421 4.12531 31.7294 4.35982C31.4167 4.5787 31.2604 4.88356 31.2604 5.27442V6.07176C31.2604 6.44697 31.3464 6.70494 31.5184 6.84564C31.6903 6.97072 31.9014 7.04107 32.1515 7.0567C32.4173 7.07234 32.7066 7.05671 33.0192 7.0098C33.3319 6.9629 33.629 6.93945 33.9104 6.93945C34.3638 6.93945 34.7312 7.04107 35.0126 7.24431C35.294 7.44756 35.4347 7.72115 35.4347 8.06511C35.4347 8.37779 35.3253 8.64357 35.1064 8.86245C34.8875 9.08132 34.5123 9.30802 33.9807 9.54253C32.8394 10.0272 32.0343 10.4259 31.5653 10.7385C31.1119 11.0512 30.8852 11.3639 30.8852 11.6766C30.8852 11.8486 30.9477 12.0049 31.0728 12.1456C31.2135 12.2707 31.3933 12.3879 31.6122 12.4974C31.8467 12.5912 32.1046 12.6694 32.3861 12.7319C32.6675 12.7788 32.9567 12.8022 33.2538 12.8022C34.0042 12.8022 34.7312 12.7241 35.4347 12.5677C36.1382 12.3958 36.7949 12.1534 37.4046 11.8407C37.6079 11.7313 37.7564 11.6922 37.8502 11.7235C37.944 11.7391 37.9909 11.8564 37.9909 12.0753V17H30.7914ZM38.3868 16.9531C38.6682 16.4215 38.8715 15.7649 38.9965 14.9832C39.1372 14.1859 39.2076 13.1775 39.2076 11.958V5.62618C39.2076 4.40672 39.1372 3.40614 38.9965 2.62443C38.8715 1.82709 38.6682 1.16265 38.3868 0.631086V0.584183H42.9363C44.3434 0.584183 45.5863 0.771792 46.6651 1.14701C47.7438 1.50659 48.6506 2.03815 49.3854 2.74169C50.1358 3.42959 50.6987 4.26602 51.0739 5.25096C51.4491 6.23591 51.6367 7.33812 51.6367 8.55758C51.6367 9.88648 51.4491 11.0747 51.0739 12.1222C50.6987 13.1696 50.1358 14.053 49.3854 14.7721C48.635 15.4913 47.6969 16.0463 46.5713 16.4372C45.4612 16.8124 44.1714 17 42.7018 17H38.3868V16.9531ZM43.0301 11.958C43.0301 12.7241 43.038 13.3651 43.0536 13.881C43.0849 14.3969 43.1474 14.819 43.2412 15.1474C43.335 15.46 43.4679 15.6867 43.6399 15.8274C43.8118 15.9525 44.0385 16.0151 44.32 16.0151C44.8046 16.0151 45.2424 15.8431 45.6332 15.4991C46.0397 15.1552 46.3758 14.6627 46.6416 14.0217C46.923 13.3651 47.1263 12.5834 47.2514 11.6766C47.3921 10.7542 47.439 9.72232 47.3921 8.58103C47.3452 7.54918 47.2201 6.60332 47.0168 5.74344C46.8292 4.86793 46.5791 4.12531 46.2664 3.51558C45.9694 2.89021 45.6254 2.40556 45.2346 2.06161C44.8437 1.70202 44.4372 1.52223 44.0151 1.52223C43.5617 1.52223 43.2803 1.71766 43.1708 2.10851C43.077 2.48373 43.0301 3.15599 43.0301 4.12531V11.958ZM56.1892 17C55.642 17 55.1495 16.9218 54.7118 16.7655C54.274 16.6091 53.8988 16.3981 53.5861 16.1323C53.2734 15.8509 53.0311 15.5226 52.8591 15.1474C52.6871 14.7565 52.6011 14.3344 52.6011 13.881C52.6011 12.7866 53.1014 11.8173 54.102 10.9731C55.1026 10.1132 56.6191 9.3471 58.6515 8.67484C58.7923 8.62793 58.8939 8.5654 58.9564 8.48723C59.019 8.39342 59.0346 8.30743 59.0033 8.22926C58.9877 8.15109 58.9173 8.08856 58.7923 8.04165C58.6828 7.99475 58.5265 7.97912 58.3232 7.99475C57.9011 8.02602 57.3461 8.19018 56.6582 8.48723C55.9859 8.76864 55.2746 9.12041 54.5241 9.54253C53.9144 9.90211 53.4767 10.0037 53.2109 9.84739C52.9607 9.67542 52.8357 9.26111 52.8357 8.60448V5.62618C52.8357 4.40672 52.7653 3.40614 52.6246 2.62443C52.4995 1.82709 52.2963 1.16265 52.0149 0.631086V0.584183H63.3887V4.68814C63.3887 5.06336 63.2011 5.18843 62.8259 5.06336C62.4194 4.92265 62.0051 4.78976 61.5829 4.66469C61.1608 4.53961 60.7465 4.43017 60.34 4.33637C59.9492 4.22693 59.574 4.14876 59.2144 4.10186C58.8704 4.03932 58.5812 4.00805 58.3467 4.00805C57.8464 4.00805 57.4399 4.12531 57.1272 4.35982C56.8145 4.5787 56.6582 4.88356 56.6582 5.27442V6.07176C56.6582 6.44697 56.7442 6.70494 56.9162 6.84564C57.0881 6.97072 57.2992 7.04107 57.5493 7.0567C57.8151 7.07234 58.1044 7.05671 58.417 7.0098C58.7297 6.9629 59.0268 6.93945 59.3082 6.93945C59.7616 6.93945 60.129 7.04107 60.4104 7.24431C60.6918 7.44756 60.8325 7.72115 60.8325 8.06511C60.8325 8.37779 60.7231 8.64357 60.5042 8.86245C60.2853 9.08132 59.9101 9.30802 59.3785 9.54253C58.2372 10.0272 57.4321 10.4259 56.9631 10.7385C56.5097 11.0512 56.283 11.3639 56.283 11.6766C56.283 11.8486 56.3455 12.0049 56.4706 12.1456C56.6113 12.2707 56.7911 12.3879 57.01 12.4974C57.2445 12.5912 57.5024 12.6694 57.7839 12.7319C58.0653 12.7788 58.3545 12.8022 58.6515 12.8022C59.402 12.8022 60.129 12.7241 60.8325 12.5677C61.536 12.3958 62.1927 12.1534 62.8024 11.8407C63.0056 11.7313 63.1542 11.6922 63.248 11.7235C63.3418 11.7391 63.3887 11.8564 63.3887 12.0753V17H56.1892ZM75.4699 12.1456C75.2979 12.7241 75.1494 13.2556 75.0243 13.7403C74.8992 14.2093 74.8054 14.6392 74.7429 15.0301C74.6804 15.421 74.6569 15.7727 74.6725 16.0854C74.7038 16.3981 74.7898 16.6873 74.9305 16.9531V17L67.4027 16.9765V16.9296C67.6841 16.3981 67.7623 15.7493 67.6372 14.9832C67.5278 14.2015 67.3323 13.2322 67.0509 12.0753L65.4562 5.48548C65.1748 4.31292 64.8387 3.3436 64.4478 2.57753C64.0726 1.81146 63.7443 1.16265 63.4629 0.631086V0.584183H69.3491V0.631086C69.0677 1.16265 68.9895 1.81146 69.1146 2.57753C69.2397 3.3436 69.4508 4.31292 69.7478 5.48548L71.1314 10.9731C71.3503 11.8798 71.5926 12.5365 71.8584 12.9429C72.1398 13.3494 72.4134 13.5683 72.6792 13.5996C72.9606 13.6308 73.2186 13.5136 73.4531 13.2478C73.6876 12.9664 73.8752 12.5912 74.0159 12.1222L74.954 8.8859C75.079 8.44814 75.1025 8.11201 75.0243 7.8775C74.9618 7.62735 74.7429 7.43192 74.3677 7.29122L73.2889 6.8691C72.6167 6.60332 72.0773 6.2281 71.6708 5.74344C71.2643 5.24315 71.0611 4.69595 71.0611 4.10186C71.0611 3.5703 71.1783 3.07782 71.4128 2.62443C71.663 2.17105 72.0069 1.78801 72.4447 1.47533C72.8824 1.14701 73.3984 0.896865 73.9925 0.724891C74.6022 0.537281 75.2666 0.443476 75.9858 0.443476C76.2516 0.443476 76.533 0.451293 76.8301 0.466927C77.1271 0.482561 77.3929 0.513829 77.6274 0.560732C77.8775 0.592 78.073 0.638902 78.2137 0.701438C78.37 0.763975 78.4325 0.842145 78.4013 0.93595L77.2756 5.34477C77.1975 5.61055 77.0411 5.6809 76.8066 5.55583C76.275 5.32132 75.7357 5.13371 75.1885 4.993C74.6569 4.8523 74.1488 4.78194 73.6641 4.78194C73.4296 4.78194 73.2498 4.82103 73.1248 4.8992C73.0153 4.96173 72.9528 5.0399 72.9372 5.13371C72.9372 5.22751 72.9841 5.32914 73.0779 5.43857C73.1873 5.53238 73.3436 5.61055 73.5469 5.67309L75.5871 6.32972C76.4939 6.62677 76.8066 7.2834 76.5252 8.29962L75.4699 12.1456ZM88.8004 17.1407C88.3001 17.1407 87.7764 16.9922 87.2292 16.6951C86.682 16.3825 86.1426 15.9838 85.611 15.4991C85.0795 15.0145 84.5792 14.4673 84.1102 13.8575C83.6411 13.2322 83.2268 12.6146 82.8673 12.0049C82.5077 11.3952 82.2184 10.8089 81.9996 10.2461C81.7963 9.68324 81.6947 9.2064 81.6947 8.81554C81.6947 8.47159 81.7572 8.17454 81.8823 7.9244C82.023 7.67425 82.2419 7.47883 82.5389 7.33812C82.8516 7.18178 83.2581 7.07234 83.7584 7.0098C84.2743 6.93163 84.8997 6.89255 85.6345 6.89255C86.9009 6.89255 87.9014 6.75184 88.6362 6.47043C89.3867 6.18901 89.7619 5.79034 89.7619 5.27442C89.7619 4.91483 89.5352 4.61778 89.0818 4.38327C88.6284 4.13313 88.0656 4.00805 87.3933 4.00805C86.3771 4.00805 85.4547 4.10968 84.6261 4.31292C83.8131 4.51616 83.1096 4.80539 82.5155 5.18061C81.937 5.5402 81.4836 5.97013 81.1553 6.47043C80.8426 6.97072 80.6863 7.51791 80.6863 8.11201C80.6863 9.44091 81.0146 10.762 81.6713 12.0753C82.3279 13.3729 83.3363 14.7331 84.6965 16.1558C84.8372 16.3121 84.9075 16.4919 84.9075 16.6951C84.9231 16.8984 84.7981 17 84.5323 17H78.7164V16.9531C78.9978 16.4215 79.2011 15.7649 79.3261 14.9832C79.4668 14.1859 79.5372 13.1775 79.5372 11.958V5.62618C79.5372 4.40672 79.4668 3.40614 79.3261 2.62443C79.2011 1.82709 78.9978 1.16265 78.7164 0.631086V0.584183H85.869C86.7289 0.584183 87.5106 0.677987 88.2141 0.865597C88.9177 1.05321 89.5118 1.31899 89.9964 1.66294C90.4967 2.00689 90.8797 2.41337 91.1455 2.8824C91.4113 3.35142 91.5442 3.86735 91.5442 4.43017C91.5442 4.8523 91.4817 5.23533 91.3566 5.57928C91.2471 5.9076 91.0517 6.20465 90.7703 6.47043C90.4889 6.73621 90.1215 6.98635 89.6681 7.22086C89.2147 7.43974 88.6519 7.65862 87.9796 7.8775C86.9478 8.23708 86.1661 8.76082 85.6345 9.44872C85.1029 10.121 84.8372 10.8792 84.8372 11.7235C84.8372 12.3958 85.017 12.9664 85.3765 13.4354C85.7518 13.8888 86.2051 14.1155 86.7367 14.1155C87.065 14.1155 87.323 14.0061 87.5106 13.7872C87.6982 13.5683 87.792 13.3025 87.792 12.9899C87.792 12.6615 87.6904 12.3176 87.4871 11.958C87.2839 11.5984 86.9478 11.2779 86.4787 10.9965C86.2599 10.8402 86.252 10.6604 86.4553 10.4571C86.6585 10.2695 86.9009 10.0741 87.1823 9.87085C87.4793 9.6676 87.7842 9.47218 88.0969 9.28457C88.4252 9.08132 88.7457 8.90153 89.0584 8.74519C89.3711 8.58885 89.6603 8.46377 89.9261 8.36997C90.0199 8.3387 90.1059 8.32307 90.184 8.32307C90.2622 8.30743 90.3404 8.3387 90.4185 8.41687C91.0752 9.04224 91.5676 9.76141 91.896 10.5744C92.2243 11.3717 92.3884 12.2394 92.3884 13.1775C92.3884 13.7403 92.2946 14.264 92.107 14.7487C91.9194 15.2177 91.6614 15.632 91.3331 15.9916C91.0205 16.3512 90.6452 16.6326 90.2075 16.8358C89.7697 17.0391 89.3007 17.1407 88.8004 17.1407ZM100.074 17.3752C99.0578 17.3752 98.1041 17.1642 97.213 16.742C96.3374 16.3043 95.5636 15.7102 94.8913 14.9597C94.2347 14.2093 93.7031 13.326 93.2966 12.3098C92.8901 11.2935 92.6634 10.1992 92.6165 9.0266C92.5696 7.79151 92.7103 6.6424 93.0387 5.57928C93.3826 4.50053 93.8594 3.56248 94.4692 2.76514C95.0945 1.9678 95.8293 1.34244 96.6736 0.889048C97.5335 0.435659 98.4637 0.208965 99.4643 0.208965C100.465 0.208965 101.411 0.427842 102.302 0.865597C103.193 1.28772 103.967 1.874 104.624 2.62443C105.296 3.37487 105.835 4.2582 106.242 5.27442C106.648 6.29063 106.875 7.38502 106.922 8.55758C106.969 9.79267 106.82 10.9496 106.476 12.0284C106.148 13.0915 105.671 14.0217 105.046 14.819C104.436 15.6164 103.701 16.2417 102.841 16.6951C101.997 17.1485 101.075 17.3752 100.074 17.3752ZM97.0723 9.33147C97.4318 11.8642 97.9009 13.6856 98.4793 14.7956C99.0734 15.9056 99.8473 16.4059 100.801 16.2965C101.755 16.1714 102.364 15.4757 102.63 14.2093C102.896 12.9273 102.841 10.9418 102.466 8.25271C102.122 5.71999 101.653 3.89861 101.059 2.78859C100.465 1.66294 99.691 1.16265 98.7373 1.28772C97.7836 1.39716 97.1739 2.09287 96.9081 3.37487C96.6423 4.65687 96.697 6.6424 97.0723 9.33147Z" fill="#47AB4B"/>
<path d="M110.348 17.3752C110.066 17.3752 109.793 17.3205 109.527 17.2111C109.277 17.1016 109.05 16.9531 108.847 16.7655C108.659 16.5779 108.511 16.3668 108.401 16.1323C108.292 15.8822 108.237 15.6164 108.237 15.335C108.237 15.0536 108.292 14.7878 108.401 14.5376C108.511 14.2875 108.659 14.0764 108.847 13.9044C109.05 13.7168 109.277 13.5683 109.527 13.4589C109.793 13.3494 110.066 13.2947 110.348 13.2947C110.926 13.2947 111.419 13.498 111.825 13.9044C112.232 14.2953 112.435 14.7721 112.435 15.335C112.435 15.6164 112.38 15.8822 112.271 16.1323C112.161 16.3668 112.013 16.5779 111.825 16.7655C111.638 16.9531 111.411 17.1016 111.145 17.2111C110.895 17.3205 110.629 17.3752 110.348 17.3752ZM115.533 17V1.77806H127.579V17H124.359V4.46429H118.752V17H115.533ZM137.644 5.1465C138.951 5.1465 140.01 5.65816 140.82 6.68149C141.63 7.6906 142.036 9.18294 142.036 11.1585C142.036 12.4803 141.844 13.596 141.46 14.5056C141.076 15.4011 140.55 16.0762 139.882 16.531C139.214 16.9858 138.44 17.2132 137.558 17.2132C137.004 17.2132 136.521 17.1421 136.109 17C135.711 16.8579 135.37 16.6731 135.085 16.4457C134.801 16.2183 134.552 15.9767 134.339 15.7208H134.169C134.226 15.9909 134.268 16.2751 134.297 16.5736C134.325 16.8579 134.339 17.1421 134.339 17.4264V22.1166H131.163V5.35969H133.742L134.19 6.87336H134.339C134.552 6.56068 134.808 6.27642 135.107 6.02059C135.405 5.75055 135.761 5.53735 136.173 5.38101C136.599 5.22467 137.089 5.1465 137.644 5.1465ZM136.62 7.68349C136.066 7.68349 135.626 7.79719 135.299 8.0246C134.972 8.252 134.73 8.60022 134.574 9.06924C134.432 9.52405 134.353 10.0997 134.339 10.7961V11.1372C134.339 11.8905 134.41 12.5301 134.552 13.0559C134.695 13.5676 134.936 13.9585 135.277 14.2285C135.618 14.4985 136.08 14.6336 136.663 14.6336C137.146 14.6336 137.544 14.4985 137.857 14.2285C138.17 13.9585 138.404 13.5605 138.56 13.0346C138.717 12.5087 138.795 11.8692 138.795 11.1159C138.795 9.97886 138.617 9.12609 138.262 8.55758C137.921 7.97485 137.374 7.68349 136.62 7.68349ZM149.429 5.12518C150.993 5.12518 152.187 5.46629 153.011 6.14851C153.85 6.81651 154.269 7.84694 154.269 9.2398V17H152.052L151.433 15.4224H151.348C151.021 15.8345 150.68 16.1757 150.325 16.4457C149.984 16.7157 149.586 16.9076 149.131 17.0213C148.69 17.1492 148.143 17.2132 147.489 17.2132C146.807 17.2132 146.189 17.0853 145.634 16.8294C145.094 16.5594 144.668 16.1543 144.355 15.6142C144.043 15.0599 143.886 14.3635 143.886 13.525C143.886 12.2884 144.32 11.3788 145.187 10.7961C146.054 10.1992 147.354 9.87227 149.088 9.81542L151.114 9.75146V9.2398C151.114 8.62864 150.95 8.18094 150.623 7.89668C150.311 7.61243 149.87 7.4703 149.301 7.4703C148.733 7.4703 148.179 7.55557 147.639 7.72613C147.098 7.88247 146.558 8.08145 146.018 8.32307L144.974 6.16982C145.599 5.84293 146.288 5.5871 147.042 5.40233C147.809 5.21756 148.605 5.12518 149.429 5.12518ZM149.877 11.6489C148.854 11.6773 148.143 11.8621 147.745 12.2032C147.347 12.5443 147.148 12.992 147.148 13.5463C147.148 14.0295 147.29 14.3777 147.575 14.5909C147.859 14.7899 148.228 14.8894 148.683 14.8894C149.365 14.8894 149.941 14.6904 150.41 14.2925C150.879 13.8803 151.114 13.3047 151.114 12.5656V11.6062L149.877 11.6489ZM165.153 5.35969H168.649L164.044 10.9453L169.054 17H165.451L160.697 11.0946V17H157.52V5.35969H160.697V11.0093L165.153 5.35969ZM180.356 7.74745H176.54V17H173.363V7.74745H169.547V5.35969H180.356V7.74745ZM185.574 9.96465C185.574 10.2063 185.56 10.5047 185.531 10.8601C185.517 11.2154 185.496 11.5778 185.467 11.9473C185.453 12.3169 185.432 12.6438 185.403 12.928C185.375 13.2123 185.353 13.4113 185.339 13.525L190.712 5.35969H194.528V17H191.458V12.3524C191.458 11.9687 191.472 11.5494 191.501 11.0946C191.529 10.6255 191.557 10.1921 191.586 9.7941C191.628 9.38192 191.657 9.06924 191.671 8.85605L186.32 17H182.504V5.35969H185.574V9.96465ZM205.48 5.35969H208.976L204.371 10.9453L209.382 17H205.779L201.024 11.0946V17H197.848V5.35969H201.024V11.0093L205.48 5.35969ZM214.117 9.96465C214.117 10.2063 214.103 10.5047 214.075 10.8601C214.061 11.2154 214.039 11.5778 214.011 11.9473C213.997 12.3169 213.975 12.6438 213.947 12.928C213.918 13.2123 213.897 13.4113 213.883 13.525L219.255 5.35969H223.071V17H220.002V12.3524C220.002 11.9687 220.016 11.5494 220.044 11.0946C220.073 10.6255 220.101 10.1921 220.129 9.7941C220.172 9.38192 220.2 9.06924 220.215 8.85605L214.864 17H211.047V5.35969H214.117V9.96465Z" fill="black"/>
</svg>
